<?xml version="1.0" encoding="UTF-8"?><svg id="Layer_1" xmlns="http://www.w3.org/2000/svg" viewBox="0 0 209 177"><rect x="1" y="1" width="208" height="176" fill="none"/><rect x="1" y="1" width="8" height="16" fill="#cceae9" stroke="#cceae9" stroke-linecap="round" stroke-width="2"/><rect x="9" y="1" width="8" height="16" fill="#cceae9" stroke="#cceae9" stroke-linecap="round" stroke-width="2"/><rect x="17" y="1" width="8" height="16" fill="#cceae9" stroke="#cceae9" stroke-linecap="round" stroke-width="2"/><rect x="25" y="1" width="8" height="16" fill="#cceae9" stroke="#cceae9" stroke-linecap="round" stroke-width="2"/><rect x="33" y="1" width="8" height="16" fill="#cceae9" stroke="#cceae9" stroke-linecap="round" stroke-width="2"/><text transform="translate(43 13)" fill="#cceae9" font-family="CourierNewPSMT, &apos;Courier New&apos;" font-size="14" isolation="isolate"><tspan x="0" y="0">▒</tspan></text><rect x="49" y="9" width="8" height="8" fill="#cceae9" stroke="#cceae9" stroke-linecap="round" stroke-width="2"/><rect x="57" y="9" width="8" height="8" fill="#cceae9" stroke="#cceae9" stroke-linecap="round" stroke-width="2"/><rect x="65" y="9" width="8" height="8" fill="#cceae9" stroke="#cceae9" stroke-linecap="round" stroke-width="2"/><rect x="73" y="9" width="8" height="8" fill="#cceae9" stroke="#cceae9" stroke-linecap="round" stroke-width="2"/><rect x="113" y="9" width="8" height="8" fill="#cceae9" stroke="#cceae9" stroke-linecap="round" stroke-width="2"/><rect x="121" y="9" width="8" height="8" fill="#cceae9" stroke="#cceae9" stroke-linecap="round" stroke-width="2"/><rect x="129" y="9" width="8" height="8" fill="#cceae9" stroke="#cceae9" stroke-linecap="round" stroke-width="2"/><text transform="translate(3 29)" fill="#cceae9" font-family="CourierNewPSMT, &apos;Courier New&apos;" font-size="14" isolation="isolate"><tspan x="0" y="0">▓</tspan></text><rect x="9" y="17" width="8" height="16" fill="#cceae9" stroke="#cceae9" stroke-linecap="round" stroke-width="2"/><rect x="17" y="17" width="8" height="16" fill="#cceae9" stroke="#cceae9" stroke-linecap="round" stroke-width="2"/><rect x="65" y="17" width="8" height="16" fill="#cceae9" stroke="#cceae9" stroke-linecap="round" stroke-width="2"/><rect x="73" y="17" width="8" height="16" fill="#cceae9" stroke="#cceae9" stroke-linecap="round" stroke-width="2"/><rect x="81" y="17" width="8" height="16" fill="#cceae9" stroke="#cceae9" stroke-linecap="round" stroke-width="2"/><rect x="89" y="17" width="8" height="16" fill="#cceae9" stroke="#cceae9" stroke-linecap="round" stroke-width="2"/><rect x="97" y="17" width="8" height="16" fill="#cceae9" stroke="#cceae9" stroke-linecap="round" stroke-width="2"/><rect x="105" y="25" width="8" height="8" fill="#cceae9" stroke="#cceae9" stroke-linecap="round" stroke-width="2"/><text transform="translate(123 29)" fill="#cceae9" font-family="CourierNewPSMT, &apos;Courier New&apos;" font-size="14" isolation="isolate"><tspan x="0" y="0">▒</tspan></text><rect x="129" y="17" width="8" height="16" fill="#cceae9" stroke="#cceae9" stroke-linecap="round" stroke-width="2"/><rect x="137" y="17" width="8" height="16" fill="#cceae9" stroke="#cceae9" stroke-linecap="round" stroke-width="2"/><rect x="145" y="17" width="8" height="16" fill="#cceae9" stroke="#cceae9" stroke-linecap="round" stroke-width="2"/><rect x="153" y="17" width="8" height="16" fill="#cceae9" stroke="#cceae9" stroke-linecap="round" stroke-width="2"/><rect x="161" y="25" width="8" height="8" fill="#cceae9" stroke="#cceae9" stroke-linecap="round" stroke-width="2"/><text transform="translate(3 45)" fill="#cceae9" font-family="CourierNewPSMT, &apos;Courier New&apos;" font-size="14" isolation="isolate"><tspan x="0" y="0">▒</tspan></text><rect x="9" y="33" width="8" height="16" fill="#cceae9" stroke="#cceae9" stroke-linecap="round" stroke-width="2"/><rect x="17" y="33" width="8" height="16" fill="#cceae9" stroke="#cceae9" stroke-linecap="round" stroke-width="2"/><rect x="25" y="33" width="8" height="16" fill="#cceae9" stroke="#cceae9" stroke-linecap="round" stroke-width="2"/><rect x="33" y="33" width="8" height="16" fill="#cceae9" stroke="#cceae9" stroke-linecap="round" stroke-width="2"/><rect x="65" y="33" width="8" height="16" fill="#cceae9" stroke="#cceae9" stroke-linecap="round" stroke-width="2"/><rect x="73" y="33" width="8" height="16" fill="#cceae9" stroke="#cceae9" stroke-linecap="round" stroke-width="2"/><rect x="97" y="41" width="8" height="8" fill="#cceae9" stroke="#cceae9" stroke-linecap="round" stroke-width="2"/><rect x="105" y="33" width="8" height="16" fill="#cceae9" stroke="#cceae9" stroke-linecap="round" stroke-width="2"/><rect x="113" y="33" width="8" height="16" fill="#cceae9" stroke="#cceae9" stroke-linecap="round" stroke-width="2"/><text transform="translate(123 45)" fill="#cceae9" font-family="CourierNewPSMT, &apos;Courier New&apos;" font-size="14" isolation="isolate"><tspan x="0" y="0">▒</tspan></text><rect x="129" y="33" width="8" height="16" fill="#cceae9" stroke="#cceae9" stroke-linecap="round" stroke-width="2"/><rect x="137" y="33" width="8" height="16" fill="#cceae9" stroke="#cceae9" stroke-linecap="round" stroke-width="2"/><text transform="translate(163 45)" fill="#cceae9" font-family="CourierNewPSMT, &apos;Courier New&apos;" font-size="14" isolation="isolate"><tspan x="0" y="0">▀</tspan></text><rect x="169" y="33" width="8" height="16" fill="#cceae9" stroke="#cceae9" stroke-linecap="round" stroke-width="2"/><rect x="177" y="41" width="8" height="8" fill="#cceae9" stroke="#cceae9" stroke-linecap="round" stroke-width="2"/><rect x="17" y="49" width="8" height="16" fill="#cceae9" stroke="#cceae9" stroke-linecap="round" stroke-width="2"/><rect x="65" y="49" width="8" height="16" fill="#cceae9" stroke="#cceae9" stroke-linecap="round" stroke-width="2"/><rect x="73" y="49" width="8" height="16" fill="#cceae9" stroke="#cceae9" stroke-linecap="round" stroke-width="2"/><rect x="89" y="49" width="8" height="16" fill="#cceae9" stroke="#cceae9" stroke-linecap="round" stroke-width="2"/><rect x="129" y="49" width="8" height="16" fill="#cceae9" stroke="#cceae9" stroke-linecap="round" stroke-width="2"/><rect x="137" y="49" width="8" height="16" fill="#cceae9" stroke="#cceae9" stroke-linecap="round" stroke-width="2"/><rect x="145" y="57" width="8" height="8" fill="#cceae9" stroke="#cceae9" stroke-linecap="round" stroke-width="2"/><rect x="153" y="57" width="8" height="8" fill="#cceae9" stroke="#cceae9" stroke-linecap="round" stroke-width="2"/><rect x="161" y="57" width="8" height="8" fill="#cceae9" stroke="#cceae9" stroke-linecap="round" stroke-width="2"/><rect x="169" y="57" width="8" height="8" fill="#cceae9" stroke="#cceae9" stroke-linecap="round" stroke-width="2"/><rect x="177" y="49" width="8" height="16" fill="#cceae9" stroke="#cceae9" stroke-linecap="round" stroke-width="2"/><rect x="185" y="49" width="8" height="16" fill="#cceae9" stroke="#cceae9" stroke-linecap="round" stroke-width="2"/><rect x="17" y="65" width="8" height="16" fill="#cceae9" stroke="#cceae9" stroke-linecap="round" stroke-width="2"/><rect x="73" y="65" width="8" height="16" fill="#cceae9" stroke="#cceae9" stroke-linecap="round" stroke-width="2"/><rect x="105" y="65" width="8" height="16" fill="#cceae9" stroke="#cceae9" stroke-linecap="round" stroke-width="2"/><rect x="137" y="65" width="8" height="16" fill="#cceae9" stroke="#cceae9" stroke-linecap="round" stroke-width="2"/><text transform="translate(171 77)" fill="#cceae9" font-family="CourierNewPSMT, &apos;Courier New&apos;" font-size="14" isolation="isolate"><tspan x="0" y="0">▓▒</tspan></text><rect x="177" y="65" width="8" height="16" fill="#cceae9" stroke="#cceae9" stroke-linecap="round" stroke-width="2"/><rect x="185" y="65" width="8" height="16" fill="#cceae9" stroke="#cceae9" stroke-linecap="round" stroke-width="2"/><rect x="73" y="81" width="8" height="16" fill="#cceae9" stroke="#cceae9" stroke-linecap="round" stroke-width="2"/><rect x="81" y="81" width="8" height="16" fill="#cceae9" stroke="#cceae9" stroke-linecap="round" stroke-width="2"/><rect x="89" y="81" width="8" height="16" fill="#cceae9" stroke="#cceae9" stroke-linecap="round" stroke-width="2"/><rect x="177" y="81" width="8" height="16" fill="#cceae9" stroke="#cceae9" stroke-linecap="round" stroke-width="2"/><text transform="translate(3 109)" fill="#cceae9" font-family="CourierNewPSMT, &apos;Courier New&apos;" font-size="14" isolation="isolate"><tspan x="0" y="0">░</tspan></text><text transform="translate(99 109)" fill="#cceae9" font-family="CourierNewPSMT, &apos;Courier New&apos;" font-size="14" isolation="isolate"><tspan x="0" y="0">░</tspan></text><text transform="translate(131 109)" fill="#cceae9" font-family="CourierNewPSMT, &apos;Courier New&apos;" font-size="14" isolation="isolate"><tspan x="0" y="0">▒</tspan></text><text transform="translate(3 125)" fill="#cceae9" font-family="CourierNewPSMT, &apos;Courier New&apos;" font-size="14" isolation="isolate"><tspan x="0" y="0">░</tspan></text><text transform="translate(59 125)" fill="#cceae9" font-family="CourierNewPSMT, &apos;Courier New&apos;" font-size="14" isolation="isolate"><tspan x="0" y="0">░</tspan></text><text transform="translate(99 125)" fill="#cceae9" font-family="CourierNewPSMT, &apos;Courier New&apos;" font-size="14" isolation="isolate"><tspan x="0" y="0">░</tspan></text><text transform="translate(131 125)" fill="#cceae9" font-family="CourierNewPSMT, &apos;Courier New&apos;" font-size="14" isolation="isolate"><tspan x="0" y="0">░</tspan></text><text transform="translate(163 125)" fill="#cceae9" font-family="CourierNewPSMT, &apos;Courier New&apos;" font-size="14" isolation="isolate"><tspan x="0" y="0">▒</tspan></text><text transform="translate(67 141)" fill="#cceae9" font-family="CourierNewPSMT, &apos;Courier New&apos;" font-size="14" isolation="isolate"><tspan x="0" y="0">░</tspan></text><text transform="translate(171 141)" fill="#cceae9" font-family="CourierNewPSMT, &apos;Courier New&apos;" font-size="14" isolation="isolate"><tspan x="0" y="0">░</tspan></text><text transform="translate(19 125)" fill="#cceae9" font-family="CourierNewPSMT, &apos;Courier New&apos;" font-size="14" isolation="isolate"><tspan x="0" y="0">░</tspan></text><text transform="translate(195 141)" fill="#cceae9" font-family="CourierNewPSMT, &apos;Courier New&apos;" font-size="14" isolation="isolate"><tspan x="0" y="0">░</tspan></text><text transform="translate(99 157)" fill="#cceae9" font-family="CourierNewPSMT, &apos;Courier New&apos;" font-size="14" isolation="isolate"><tspan x="0" y="0">░</tspan></text><g><text transform="translate(51 29)" fill="#cceae9" font-family="CourierNewPSMT, &apos;Courier New&apos;" font-size="14" isolation="isolate"><tspan x="0" y="0">▒</tspan></text><text transform="translate(59 29)" fill="#cceae9" font-family="CourierNewPSMT, &apos;Courier New&apos;" font-size="14" isolation="isolate"><tspan x="0" y="0">▓</tspan></text></g><g><text transform="translate(51 45)" fill="#cceae9" font-family="CourierNewPSMT, &apos;Courier New&apos;" font-size="14" isolation="isolate"><tspan x="0" y="0">░</tspan></text><text transform="translate(59 45)" fill="#cceae9" font-family="CourierNewPSMT, &apos;Courier New&apos;" font-size="14" isolation="isolate"><tspan x="0" y="0">▒▒</tspan></text></g><g><text transform="translate(3 61)" fill="#cceae9" font-family="CourierNewPSMT, &apos;Courier New&apos;" font-size="14" isolation="isolate"><tspan x="0" y="0">░▒░</tspan></text><text transform="translate(11 61)" fill="#cceae9" font-family="CourierNewPSMT, &apos;Courier New&apos;" font-size="14" isolation="isolate"><tspan x="0" y="0">▓</tspan></text><text transform="translate(59 61)" fill="#cceae9" font-family="CourierNewPSMT, &apos;Courier New&apos;" font-size="14" isolation="isolate"><tspan x="0" y="0">▒░</tspan></text><text transform="translate(99 61)" fill="#cceae9" font-family="CourierNewPSMT, &apos;Courier New&apos;" font-size="14" isolation="isolate"><tspan x="0" y="0">▀░</tspan></text></g><g><text transform="translate(3 77)" fill="#cceae9" font-family="CourierNewPSMT, &apos;Courier New&apos;" font-size="14" isolation="isolate"><tspan x="0" y="0">░░</tspan></text><text transform="translate(11 77)" fill="#cceae9" font-family="CourierNewPSMT, &apos;Courier New&apos;" font-size="14" isolation="isolate"><tspan x="0" y="0">▒</tspan></text></g><g><text transform="translate(59 77)" fill="#cceae9" font-family="CourierNewPSMT, &apos;Courier New&apos;" font-size="14" isolation="isolate"><tspan x="0" y="0">░</tspan></text><text transform="translate(67 77)" fill="#cceae9" font-family="CourierNewPSMT, &apos;Courier New&apos;" font-size="14" isolation="isolate"><tspan x="0" y="0">▓</tspan></text></g><g><text transform="translate(99 77)" fill="#cceae9" font-family="CourierNewPSMT, &apos;Courier New&apos;" font-size="14" isolation="isolate"><tspan x="0" y="0">▀</tspan></text><text transform="translate(115 77)" fill="#cceae9" font-family="CourierNewPSMT, &apos;Courier New&apos;" font-size="14" isolation="isolate"><tspan x="0" y="0">▓</tspan></text><text transform="translate(131 77)" fill="#cceae9" font-family="CourierNewPSMT, &apos;Courier New&apos;" font-size="14" isolation="isolate"><tspan x="0" y="0">▓</tspan></text></g><g><text transform="translate(3 93)" fill="#cceae9" font-family="CourierNewPSMT, &apos;Courier New&apos;" font-size="14" isolation="isolate"><tspan x="0" y="0">▒</tspan></text><text transform="translate(19 93)" fill="#cceae9" font-family="CourierNewPSMT, &apos;Courier New&apos;" font-size="14" isolation="isolate"><tspan x="0" y="0">░</tspan></text></g><g><text transform="translate(51 93)" fill="#cceae9" font-family="CourierNewPSMT, &apos;Courier New&apos;" font-size="14" isolation="isolate"><tspan x="0" y="0">░</tspan></text><text transform="translate(59 93)" fill="#cceae9" font-family="CourierNewPSMT, &apos;Courier New&apos;" font-size="14" isolation="isolate"><tspan x="0" y="0">▒</tspan></text><text transform="translate(67 93)" fill="#cceae9" font-family="CourierNewPSMT, &apos;Courier New&apos;" font-size="14" isolation="isolate"><tspan x="0" y="0">▓</tspan></text></g><g><text transform="translate(99 93)" fill="#cceae9" font-family="CourierNewPSMT, &apos;Courier New&apos;" font-size="14" isolation="isolate"><tspan x="0" y="0">▀▒</tspan></text><text transform="translate(107 93)" fill="#cceae9" font-family="CourierNewPSMT, &apos;Courier New&apos;" font-size="14" isolation="isolate"><tspan x="0" y="0">▒▒</tspan></text></g><g><text transform="translate(163 93)" fill="#cceae9" font-family="CourierNewPSMT, &apos;Courier New&apos;" font-size="14" isolation="isolate"><tspan x="0" y="0">▓░</tspan></text><text transform="translate(171 93)" fill="#cceae9" font-family="CourierNewPSMT, &apos;Courier New&apos;" font-size="14" isolation="isolate"><tspan x="0" y="0">▒</tspan></text></g><g><text transform="translate(51 109)" fill="#cceae9" font-family="CourierNewPSMT, &apos;Courier New&apos;" font-size="14" isolation="isolate"><tspan x="0" y="0">▒</tspan></text><text transform="translate(59 109)" fill="#cceae9" font-family="CourierNewPSMT, &apos;Courier New&apos;" font-size="14" isolation="isolate"><tspan x="0" y="0">░</tspan></text><text transform="translate(67 109)" fill="#cceae9" font-family="CourierNewPSMT, &apos;Courier New&apos;" font-size="14" isolation="isolate"><tspan x="0" y="0">▒</tspan></text></g><g><text transform="translate(163 109)" fill="#cceae9" font-family="CourierNewPSMT, &apos;Courier New&apos;" font-size="14" isolation="isolate"><tspan x="0" y="0">▒░</tspan></text><text transform="translate(171 109)" fill="#cceae9" font-family="CourierNewPSMT, &apos;Courier New&apos;" font-size="14" isolation="isolate"><tspan x="0" y="0">▒</tspan></text></g></svg>