<svg xmlns="http://www.w3.org/2000/svg" width="208" height="176"><style>line, path, circle,rect,polygon{stroke:black;stroke-width:2;stroke-opacity:1;fill-opacity:1;stroke-linecap:round;stroke-linejoin:miter;}text{font-family:monospace;font-size:14px;}rect.backdrop{stroke:none;fill:none;}.broken{stroke-dasharray:8;}.filled{fill:black;}.bg_filled{fill:none;}.nofill{fill:none;}.end_marked_arrow{marker-end:url(#arrow);}.start_marked_arrow{marker-start:url(#arrow);}.end_marked_diamond{marker-end:url(#diamond);}.start_marked_diamond{marker-start:url(#diamond);}.end_marked_circle{marker-end:url(#circle);}.start_marked_circle{marker-start:url(#circle);}.end_marked_open_circle{marker-end:url(#open_circle);}.start_marked_open_circle{marker-start:url(#open_circle);}.end_marked_big_open_circle{marker-end:url(#big_open_circle);}.start_marked_big_open_circle{marker-start:url(#big_open_circle);}</style><defs><marker id="arrow" viewBox="-2 -2 8 8" refX="4" refY="2" markerWidth="7" markerHeight="7" orient="auto-start-reverse"><polygon points="0,0 0,4 4,2 0,0"></polygon></marker><marker id="diamond" viewBox="-2 -2 8 8" refX="4" refY="2" markerWidth="7" markerHeight="7" orient="auto-start-reverse"><polygon points="0,2 2,0 4,2 2,4 0,2"></polygon></marker><marker id="circle" viewBox="0 0 8 8" refX="4" refY="4" markerWidth="7" markerHeight="7" orient="auto-start-reverse"><circle cx="4" cy="4" r="2" class="filled"></circle></marker><marker id="open_circle" viewBox="0 0 8 8" refX="4" refY="4" markerWidth="7" markerHeight="7" orient="auto-start-reverse"><circle cx="4" cy="4" r="2" class="bg_filled"></circle></marker><marker id="big_open_circle" viewBox="0 0 8 8" refX="4" refY="4" markerWidth="7" markerHeight="7" orient="auto-start-reverse"><circle cx="4" cy="4" r="3" class="bg_filled"></circle></marker></defs><rect class="backdrop" x="0" y="0" width="208" height="176"></rect><rect x="0" y="0" width="8" height="16" class="solid filled" rx="0"></rect><rect x="8" y="0" width="8" height="16" class="solid filled" rx="0"></rect><rect x="16" y="0" width="8" height="16" class="solid filled" rx="0"></rect><rect x="24" y="0" width="8" height="16" class="solid filled" rx="0"></rect><rect x="32" y="0" width="8" height="16" class="solid filled" rx="0"></rect><text x="42" y="12" >▒</text><rect x="48" y="8" width="8" height="8" class="solid filled" rx="0"></rect><rect x="56" y="8" width="8" height="8" class="solid filled" rx="0"></rect><rect x="64" y="8" width="8" height="8" class="solid filled" rx="0"></rect><rect x="72" y="8" width="8" height="8" class="solid filled" rx="0"></rect><rect x="112" y="8" width="8" height="8" class="solid filled" rx="0"></rect><rect x="120" y="8" width="8" height="8" class="solid filled" rx="0"></rect><rect x="128" y="8" width="8" height="8" class="solid filled" rx="0"></rect><text x="2" y="28" >▓</text><rect x="8" y="16" width="8" height="16" class="solid filled" rx="0"></rect><rect x="16" y="16" width="8" height="16" class="solid filled" rx="0"></rect><rect x="64" y="16" width="8" height="16" class="solid filled" rx="0"></rect><rect x="72" y="16" width="8" height="16" class="solid filled" rx="0"></rect><rect x="80" y="16" width="8" height="16" class="solid filled" rx="0"></rect><rect x="88" y="16" width="8" height="16" class="solid filled" rx="0"></rect><rect x="96" y="16" width="8" height="16" class="solid filled" rx="0"></rect><rect x="104" y="24" width="8" height="8" class="solid filled" rx="0"></rect><text x="122" y="28" >▒</text><rect x="128" y="16" width="8" height="16" class="solid filled" rx="0"></rect><rect x="136" y="16" width="8" height="16" class="solid filled" rx="0"></rect><rect x="144" y="16" width="8" height="16" class="solid filled" rx="0"></rect><rect x="152" y="16" width="8" height="16" class="solid filled" rx="0"></rect><rect x="160" y="24" width="8" height="8" class="solid filled" rx="0"></rect><text x="2" y="44" >▒</text><rect x="8" y="32" width="8" height="16" class="solid filled" rx="0"></rect><rect x="16" y="32" width="8" height="16" class="solid filled" rx="0"></rect><rect x="24" y="32" width="8" height="16" class="solid filled" rx="0"></rect><rect x="32" y="32" width="8" height="16" class="solid filled" rx="0"></rect><rect x="64" y="32" width="8" height="16" class="solid filled" rx="0"></rect><rect x="72" y="32" width="8" height="16" class="solid filled" rx="0"></rect><rect x="96" y="40" width="8" height="8" class="solid filled" rx="0"></rect><rect x="104" y="32" width="8" height="16" class="solid filled" rx="0"></rect><rect x="112" y="32" width="8" height="16" class="solid filled" rx="0"></rect><text x="122" y="44" >▒</text><rect x="128" y="32" width="8" height="16" class="solid filled" rx="0"></rect><rect x="136" y="32" width="8" height="16" class="solid filled" rx="0"></rect><text x="162" y="44" >▀</text><rect x="168" y="32" width="8" height="16" class="solid filled" rx="0"></rect><rect x="176" y="40" width="8" height="8" class="solid filled" rx="0"></rect><rect x="16" y="48" width="8" height="16" class="solid filled" rx="0"></rect><rect x="64" y="48" width="8" height="16" class="solid filled" rx="0"></rect><rect x="72" y="48" width="8" height="16" class="solid filled" rx="0"></rect><rect x="88" y="48" width="8" height="16" class="solid filled" rx="0"></rect><rect x="128" y="48" width="8" height="16" class="solid filled" rx="0"></rect><rect x="136" y="48" width="8" height="16" class="solid filled" rx="0"></rect><rect x="144" y="56" width="8" height="8" class="solid filled" rx="0"></rect><rect x="152" y="56" width="8" height="8" class="solid filled" rx="0"></rect><rect x="160" y="56" width="8" height="8" class="solid filled" rx="0"></rect><rect x="168" y="56" width="8" height="8" class="solid filled" rx="0"></rect><rect x="176" y="48" width="8" height="16" class="solid filled" rx="0"></rect><rect x="184" y="48" width="8" height="16" class="solid filled" rx="0"></rect><rect x="16" y="64" width="8" height="16" class="solid filled" rx="0"></rect><rect x="72" y="64" width="8" height="16" class="solid filled" rx="0"></rect><rect x="104" y="64" width="8" height="16" class="solid filled" rx="0"></rect><rect x="136" y="64" width="8" height="16" class="solid filled" rx="0"></rect><text x="170" y="76" >▓▒</text><rect x="176" y="64" width="8" height="16" class="solid filled" rx="0"></rect><rect x="184" y="64" width="8" height="16" class="solid filled" rx="0"></rect><rect x="72" y="80" width="8" height="16" class="solid filled" rx="0"></rect><rect x="80" y="80" width="8" height="16" class="solid filled" rx="0"></rect><rect x="88" y="80" width="8" height="16" class="solid filled" rx="0"></rect><rect x="176" y="80" width="8" height="16" class="solid filled" rx="0"></rect><text x="2" y="108" >░</text><text x="98" y="108" >░</text><text x="130" y="108" >▒</text><text x="2" y="124" >░</text><text x="58" y="124" >░</text><text x="98" y="124" >░</text><text x="130" y="124" >░</text><text x="162" y="124" >▒</text><text x="66" y="140" >░</text><text x="170" y="140" >░</text><text x="18" y="124" >░</text><text x="194" y="140" >░</text><text x="98" y="156" >░</text><g><text x="50" y="28">▒</text><text x="58" y="28">▓</text></g><g><text x="50" y="44">░</text><text x="58" y="44">▒▒</text></g><g><text x="2" y="60">░▒░</text><text x="10" y="60">▓</text><text x="58" y="60">▒░</text><text x="98" y="60">▀░</text></g><g><text x="2" y="76">░░</text><text x="10" y="76">▒</text></g><g><text x="58" y="76">░</text><text x="66" y="76">▓</text></g><g><text x="98" y="76">▀</text><text x="114" y="76">▓</text><text x="130" y="76">▓</text></g><g><text x="2" y="92">▒</text><text x="18" y="92">░</text></g><g><text x="50" y="92">░</text><text x="58" y="92">▒</text><text x="66" y="92">▓</text></g><g><text x="98" y="92">▀▒</text><text x="106" y="92">▒▒</text></g><g><text x="162" y="92">▓░</text><text x="170" y="92">▒</text></g><g><text x="50" y="108">▒</text><text x="58" y="108">░</text><text x="66" y="108">▒</text></g><g><text x="162" y="108">▒░</text><text x="170" y="108">▒</text></g></svg>
